<svg xmlns="http://www.w3.org/2000/svg" viewBox="0 0 487.63 50.31"><defs><style>.cls-1{fill:#fff;}</style></defs><g id="irohaka" data-name="irohaka"><g id="irohaka-blog" data-name="irohakanoblog"><path class="cls-1" d="M46.29,7.19a19,19,0,0,0-2.06,2A88.86,88.86,0,0,1,32,19.79V40.15a76.9,76.9,0,0,0,.31,8.57H22.06a72.57,72.57,0,0,0,.32-8.51V25.6a89.48,89.48,0,0,1-17.3,7.83A28.43,28.43,0,0,0,0,24.92c11.48-3.23,19.57-7.2,28.09-13.76,4.55-3.44,8.1-7,9.63-9.68Z"/><path class="cls-1" d="M60.89,43.7v3.65H51.26a67.06,67.06,0,0,0,.42-8.63V11.53c0-2.27,0-3.91-.21-6.08a61.66,61.66,0,0,0,6.4.21H86.39A60.62,60.62,0,0,0,93,5.45c-.11,1.85-.16,3.76-.16,6.24V38.51a70.1,70.1,0,0,0,.37,8.73H83.58V43.7ZM83.58,14.12H60.89V35.23H83.58Z"/><path class="cls-1" d="M118.66,7a10.66,10.66,0,0,0-.37,2.33,4.85,4.85,0,0,0-.16,1.06c-.06.26-.11.63-.21,1.22a98.29,98.29,0,0,1-3.76,17.82,52.07,52.07,0,0,1-9.36,17.94,36.17,36.17,0,0,0-8.63-6.3,37.13,37.13,0,0,0,7.51-12A67,67,0,0,0,108.6,5.18ZM134.1,5.13A64.72,64.72,0,0,0,136,16.82a66.84,66.84,0,0,0,5.39,14.66,54.5,54.5,0,0,0,6.19,9.2,34.54,34.54,0,0,0-8.36,6.67,61.25,61.25,0,0,1-9.15-17.25,98.42,98.42,0,0,1-4.49-19,29.7,29.7,0,0,0-.74-4.18Z"/><path class="cls-1" d="M164.94,10.9c.16-2.07.27-5.13.27-6.77a14.74,14.74,0,0,0-.16-2.65l9.94.27c-.26,1.21-.26,1.37-.58,6.4,0,1.43,0,1.43-.16,2.7h11.54a7.58,7.58,0,0,0,3.54-.59l4.13,3.6c-.58,1.06-.69,1.48-.74,3.92-.37,11.32-1.17,20.15-2.23,23.64C189,46.34,186.42,48,180.55,48a62.54,62.54,0,0,1-6.93-.43,25.92,25.92,0,0,0-1.8-9.31,30.17,30.17,0,0,0,6.88,1.06c2.54,0,3.17-.85,3.86-5.45a122,122,0,0,0,1-14.76h-10.1a45,45,0,0,1-.79,5.29c-2.33,10.69-7.36,17.56-18.1,24.65a30.69,30.69,0,0,0-6.87-8c7-3.7,11.11-7.46,13.75-12.8a28.06,28.06,0,0,0,2.65-9h-6.62a54.91,54.91,0,0,0-7.14.32l-.05-9a40.27,40.27,0,0,0,7.35.43Z"/><path class="cls-1" d="M217.07,33.32c-2.61,5.74-5.62,8.26-9.7,8.26-6,0-10.24-5.75-10.24-14a19.94,19.94,0,0,1,5.16-13.69c4-4.31,9.66-6.61,16.26-6.61,6,0,11.32,2,14.64,5.53,2.87,3.05,4.4,7.41,4.4,12.48a19.34,19.34,0,0,1-6,14.51C228.56,42.57,225,44,218.73,45a22,22,0,0,0-3.82-7.36,23.55,23.55,0,0,0,9.43-2.29c3.46-1.84,5.39-5.62,5.39-10.42,0-3.82-1.35-6.87-3.95-8.85A7.54,7.54,0,0,0,222,14.5C221,22.22,219.49,28,217.07,33.32Zm-7.73-16.44a14.55,14.55,0,0,0-4.89,10.69c0,3.19,1.21,5.7,2.78,5.7,1.13,0,2.29-1.57,3.64-5a58.57,58.57,0,0,0,3.37-13.7A9,9,0,0,0,209.34,16.88Z"/><path class="cls-1" d="M256.66,6.56A28.85,28.85,0,0,0,258.73,0l9.41.64c-.37.89-.37.89-1.69,4.17-.21.53-.42,1-.79,1.75h11.95c3.23,0,4.71,0,6.67-.21a48.24,48.24,0,0,0-.27,6.4V43.8a41.33,41.33,0,0,0,.32,6.19h-8.62V47.72H251.64V50h-8.47a47.32,47.32,0,0,0,.32-6.13V12.75a50.75,50.75,0,0,0-.26-6.4c2,.16,3.43.21,6.66.21Zm-5,11.32h24.12V14H251.69Zm0,11.11h24.12V25.18H251.69Zm0,11.27h24.12V36.34H251.69Z"/><path class="cls-1" d="M331.41,50.1c-.47-2.22-.58-2.65-1-4.29C325,47.19,323.32,47.45,314,49c-.58.1-.9.16-1.64.32l-1.05-5.88a31,31,0,0,0-3.12-.1h-2.86V45.6a41.72,41.72,0,0,0,.26,4.55h-7.93a34.73,34.73,0,0,0,.31-4.92v-1.9h-3.59a34.82,34.82,0,0,0-5.56.31V36.19a31.89,31.89,0,0,0,5.13.26h4V34.6h-2c-2.69,0-3.43,0-5.55.1.16-1.85.21-3.8.21-6.61v-9c0-2.81-.05-4.23-.21-6a48.23,48.23,0,0,0,5.5.16h2.06V11.32h-3.65a45.83,45.83,0,0,0-5.13.21V4.34a37.27,37.27,0,0,0,5.61.26h3.17V4.23a19.19,19.19,0,0,0-.31-3.91h8a20.16,20.16,0,0,0-.32,3.91V4.6h2.64a36.92,36.92,0,0,0,5.56-.26v7.14a40.73,40.73,0,0,0-5.08-.16h-3.12v1.91h3.17a36.36,36.36,0,0,0,4.23-.11,38.58,38.58,0,0,0-.15,5.29V28.57a53.46,53.46,0,0,0,.15,6.13c-1.11-.1-1.85-.1-4.49-.1h-2.91v1.85h3.65a25.91,25.91,0,0,0,4.28-.26v4.65l1.54-.05a119.09,119.09,0,0,0,3.75-16.4,40.68,40.68,0,0,0-4.76.26V16.56a42.08,42.08,0,0,0,5.66.26h13a42.08,42.08,0,0,0,5.66-.26v8.09a56.35,56.35,0,0,0-5.66-.26h-5.88l-2,8.52c-.74,3.12-.74,3.12-1.91,7.14,3-.37,3.34-.43,6-.85-1.37-4.28-1.53-4.76-3.12-8.89l6.77-2.69a115.91,115.91,0,0,1,6.35,19ZM296.44,19v2.38h2.28V19Zm0,7.41v2.43h2.28V26.4Zm10.27-5V19h-2.23v2.38Zm0,7.46V26.4h-2.23v2.43Zm8.62-25.92a36.91,36.91,0,0,0,5.5.26h9.95a36.91,36.91,0,0,0,5.5-.26v8a6.33,6.33,0,0,1-1.27-.11c-.85,0-2.38-.1-4.23-.1h-9.95a37.73,37.73,0,0,0-5.5.26Z"/><path class="cls-1" d="M358.65,4.44a33.36,33.36,0,0,0-.31-4h8.94a25.55,25.55,0,0,0-.32,4H380.4a52.44,52.44,0,0,0,6.82-.31v7.61a60.41,60.41,0,0,0-6.56-.31H367v1.9h10.58a47.2,47.2,0,0,0,5.71-.21A49.28,49.28,0,0,0,383,18.3V29.41a49.36,49.36,0,0,0,.21,5.19,49.38,49.38,0,0,0-5.76-.21H367v2h13.65a49.72,49.72,0,0,0,6.72-.32v7.83a55.74,55.74,0,0,0-6.93-.32H367a42.83,42.83,0,0,0,.37,6.35h-9.05a36,36,0,0,0,.37-6.35h-13a55.74,55.74,0,0,0-6.93.32V36.08a52.18,52.18,0,0,0,6.83.32h13.06v-2h-10a50.13,50.13,0,0,0-5.77.21,51.33,51.33,0,0,0,.21-5.19V18.3a51.13,51.13,0,0,0-.21-5.18,47.74,47.74,0,0,0,5.71.21h10v-1.9H345.43a59.64,59.64,0,0,0-6.56.31V4.13a58.3,58.3,0,0,0,6.82.31Zm-7.56,14.71v2.06h7.56V19.15Zm0,7.35v2.07h7.56V26.5Zm24-5.29V19.15H367v2.06Zm0,7.36V26.5H367v2.07Z"/><path class="cls-1" d="M426.63,2.43a46,46,0,0,0,5.87-.26c-.16,2.27-.26,4.23-.26,6V42.48a67.77,67.77,0,0,0,.32,7.25h-8.89V47.08h-22v2.65h-8.73c.21-2.17.32-4.6.32-7.25V8.2c0-2-.11-3.86-.26-6,1.74.16,3.65.26,6.08.26Zm-3,18.1V10.26h-22V20.53Zm-22,7.56V39.15h22V28.09Z"/><path class="cls-1" d="M460.59,16a32.5,32.5,0,0,0-4.18-.16H442.13a33,33,0,0,0-4.29.21V8.83a22.83,22.83,0,0,0,4.29.27h14.18a36.16,36.16,0,0,0,4.12-.16V1.69a51.11,51.11,0,0,0,6.14.32h13.12a45.18,45.18,0,0,0,5.82-.26,48.11,48.11,0,0,0-.26,5.5V20.74c0,2.33.05,3.6.21,5.5A39.79,39.79,0,0,0,480,26H469.27V40.05c0,1,.16,1.27,1,1.58a13.38,13.38,0,0,0,3.81.27c2.86,0,4.13-.32,4.71-1.22.42-.69.64-2.8.69-8.52a33.82,33.82,0,0,0,8.15,2.39c-.32,7.35-1.12,10.63-3,12.64-1.53,1.69-4.49,2.27-11.69,2.27-9.73,0-11.85-1.11-11.85-6.29V23.65a48.55,48.55,0,0,0-.16-5.29,51.83,51.83,0,0,0,5.4.21H477.1v-9H466.57a59.32,59.32,0,0,0-6,.26ZM439.33,50.31c.15-1.8.26-3.54.26-5.18V36.61a30,30,0,0,0-.21-3.92,33.56,33.56,0,0,0,3.91.11H456.1a15.65,15.65,0,0,0,3.22-.16,32.37,32.37,0,0,0-.1,3.55V46.34c0,.48,0,.64,0,1.38a12.19,12.19,0,0,1,.05,1.32,2,2,0,0,0,.06.53h-7.62V48H447.1v2.33Zm.26-49a38.1,38.1,0,0,0,4.81.21h9.79A38.37,38.37,0,0,0,459,1.32V7.57c-1.33-.11-2.6-.16-4.82-.16H444.4c-2.27,0-3.28,0-4.81.16Zm.16,16.19a25.34,25.34,0,0,0,3.17.11H456a20.76,20.76,0,0,0,3-.11v6a23.67,23.67,0,0,0-3-.11H442.92a25.76,25.76,0,0,0-3.17.11Zm0,7.57a27.85,27.85,0,0,0,3.17.1h13a23.28,23.28,0,0,0,3.07-.1v6a28,28,0,0,0-3.18-.1h-13a26.87,26.87,0,0,0-3.07.1Zm7.14,16.66h4.92V38.57h-4.92Z"/></g></g></svg>